<svg width="110" height="65" viewBox="0 0 110 65" fill="none" xmlns="http://www.w3.org/2000/svg">
<path d="M69.1681 59.2417L67.5052 59.2416L66.7141 54.4468L69.1684 54.4469L69.1681 59.2417Z" fill="#9E616A"/>
<path d="M69.5922 60.4467L64.2305 60.4465V60.3958C64.2305 59.982 64.4504 59.5852 64.8418 59.2927C65.2331 59.0001 65.7639 58.8357 66.3174 58.8357H66.3175L69.5923 58.8358L69.5922 60.4467Z" fill="#2F2E41"/>
<path d="M63.2003 59.2417L61.5374 59.2416L60.7463 54.4468L63.2005 54.4469L63.2003 59.2417Z" fill="#9E616A"/>
<path d="M63.6242 60.4467L58.2625 60.4465V60.3958C58.2625 59.982 58.4824 59.5852 58.8737 59.2927C59.2651 59.0001 59.7959 58.8357 60.3494 58.8357H60.3495L63.6243 58.8358L63.6242 60.4467Z" fill="#2F2E41"/>
<path d="M43.8335 25.6432C43.9664 25.7798 44.1378 25.893 44.3355 25.9748C44.5332 26.0566 44.7526 26.1049 44.978 26.1165C45.2035 26.128 45.4295 26.1025 45.6404 26.0416C45.8512 25.9808 46.0416 25.8861 46.1982 25.7643L49.4884 26.7249L50.7569 25.3725L46.0849 24.0648C45.7938 23.8817 45.4229 23.7848 45.0426 23.7925C44.6623 23.8001 44.2989 23.9118 44.0214 24.1064C43.7439 24.301 43.5715 24.5649 43.5368 24.8481C43.5022 25.1314 43.6078 25.4143 43.8335 25.6432V25.6432Z" fill="#9E616A"/>
<path d="M63.1791 33.8373L58.847 34.8937L60.2941 57.8293L63.6376 57.8911L65.3487 41.7166L65.7372 57.8273L69.8712 57.9976L71.3952 33.8373H63.1791Z" fill="#2F2E41"/>
<path d="M60.2562 20.3171L71.3747 18.5111L72.6112 25.6682L71.5816 29.0879L71.994 34.2849C71.994 34.2849 63.2024 37.5561 58.847 34.8937C58.847 34.8937 62.3476 28.02 60.3185 24.8023L60.2562 20.3171Z" fill="#E4E4E4"/>
<path d="M62.1818 21.3295L60.2562 20.3171C60.2562 20.3171 60.1425 20.1994 58.5378 21.6018C56.9332 23.0041 53.678 25.2349 53.678 25.2349L48.2526 23.7139L47.2642 26.444L53.5696 28.6407L62.4965 24.1838L62.1818 21.3295Z" fill="#E4E4E4"/>
<path d="M71.9961 36.9678C72.2004 36.8956 72.381 36.7908 72.5253 36.6608C72.6697 36.5308 72.7741 36.3787 72.8312 36.2153C72.8884 36.0519 72.897 35.8811 72.8563 35.7149C72.8156 35.5487 72.7267 35.3912 72.5958 35.2535L74.4711 33.0158L72.93 31.8322L70.3411 35.0201C70.0462 35.1998 69.8498 35.4542 69.789 35.7349C69.7282 36.0157 69.8073 36.3034 70.0113 36.5435C70.2153 36.7835 70.5301 36.9593 70.8958 37.0375C71.2616 37.1157 71.6531 37.0909 71.9961 36.9678Z" fill="#9E616A"/>
<path d="M69.6406 19.921L71.3748 18.5111C71.3748 18.5111 73.3071 18.008 74.8858 20.6075C76.4645 23.2069 78.2278 28.4795 78.2278 28.4795L74.1052 34.416L70.9035 33.3466L74.1052 28.4376L70.7172 24.8023L69.6406 19.921Z" fill="#E4E4E4"/>
<path d="M66.6999 17.9241C68.4489 17.2094 69.0917 15.57 68.1356 14.2625C67.1795 12.955 64.9866 12.4745 63.2376 13.1892C61.4886 13.904 60.8459 15.5433 61.8019 16.8508C62.758 18.1584 64.9509 18.6389 66.6999 17.9241Z" fill="#9E616A"/>
<path d="M68.0122 13.1439C67.8414 12.6082 67.244 12.1853 66.5566 11.987C65.8693 11.7887 65.1039 11.7906 64.3776 11.8829C63.172 12.036 62.0462 12.4247 60.9369 12.8094L61.792 13.1152L60.6121 13.1658L61.5238 13.5183C61.2803 13.6568 61.0951 13.8446 60.9901 14.0595C60.8852 14.2743 60.8648 14.5072 60.9315 14.7304C60.9785 14.8765 61.1039 15.0374 61.3047 15.0425C61.5475 15.0486 61.6742 14.8371 61.8442 14.7073C62.0703 14.5347 62.4274 14.4964 62.7476 14.5289C63.0678 14.5614 63.3716 14.6535 63.6875 14.7045C64.0869 14.7667 64.4997 14.7632 64.8972 14.6944C65.2947 14.6255 65.6675 14.4929 65.9896 14.3057L67.1265 16.3523C67.1158 16.2751 67.1291 16.1971 67.1654 16.1244C67.2016 16.0517 67.2599 15.9862 67.3356 15.9331C67.4113 15.88 67.5023 15.8407 67.6017 15.8183C67.7011 15.7959 67.806 15.7909 67.9084 15.8038C68.0108 15.8167 68.1077 15.8471 68.1918 15.8927C68.2758 15.9382 68.3446 15.9977 68.3928 16.0664C68.441 16.1351 68.4674 16.2113 68.4697 16.2888C68.4721 16.3664 68.4504 16.4433 68.4064 16.5136C68.8986 15.9587 69.2945 15.3282 69.3081 14.6624C69.3217 13.9967 68.88 13.2953 68.0715 13.0159" fill="#2F2E41"/>
<path d="M26.1857 54.4863L24.6483 56.2932L25.5438 53.941C23.6531 52.4662 21.0357 51.3873 21.0357 51.3873C21.0357 51.3873 17.8128 55.3471 18.6802 57.783C19.5477 60.2188 21.7876 60.6838 24.177 60.2082C26.5664 59.7327 28.2006 58.4967 27.3331 56.0608C27.14 55.5187 26.7206 54.9864 26.1857 54.4863Z" fill="#F2F2F2"/>
<path d="M24.1515 56.4734L24.1943 56.5934C24.6817 57.9909 24.7547 59.1425 24.4099 60.0322C24.4052 60.0453 24.3995 60.0579 24.3948 60.0709L24.3144 60.0532L24.2374 60.0354C24.6279 59.071 24.4536 57.8524 24.0288 56.6334C24.0157 56.594 24.0023 56.554 23.9873 56.5143C23.8014 55.9995 23.5736 55.4866 23.3257 54.9936C23.3069 54.9553 23.2872 54.9166 23.2674 54.8779C22.9357 54.2285 22.5732 53.617 22.2374 53.09C22.2139 53.0526 22.1896 53.0155 22.1655 52.9789C21.5921 52.0886 21.1061 51.4578 20.9969 51.3185C20.9839 51.3013 20.9764 51.292 20.9747 51.2898L21.0446 51.2587L21.0451 51.2579L21.1157 51.2267C21.1174 51.2289 21.143 51.2601 21.1877 51.3187C21.3566 51.5371 21.8051 52.1321 22.3224 52.9317C22.3454 52.9679 22.3698 53.0051 22.3933 53.0424C22.6664 53.4699 22.956 53.9507 23.2314 54.4611C23.3009 54.5892 23.3673 54.7161 23.4308 54.8416C23.4513 54.8801 23.4711 54.9188 23.4898 54.9571C23.7579 55.49 23.9785 55.9954 24.1515 56.4734Z" fill="white"/>
<path d="M22.3224 52.9317C22.271 52.9477 22.2189 52.9638 22.1655 52.9788C22.0206 53.02 21.873 53.0555 21.7232 53.0853C21.0851 53.213 20.4169 53.232 19.7677 53.141C19.7455 53.1791 19.7233 53.2173 19.7006 53.2562C20.3852 53.3567 21.0915 53.3389 21.7655 53.2042C21.9254 53.1724 22.0829 53.1342 22.2374 53.0899C22.29 53.075 22.3421 53.0589 22.3933 53.0423C22.8162 52.9077 23.2094 52.7258 23.5592 52.5029C23.5134 52.477 23.4686 52.4515 23.4247 52.4265C23.0926 52.6346 22.7211 52.8048 22.3224 52.9317Z" fill="white"/>
<path d="M23.4308 54.8416C23.3768 54.8549 23.3224 54.867 23.2675 54.8779C23.251 54.8818 23.2335 54.8853 23.2168 54.8886C22.5252 55.0263 21.7993 55.0369 21.101 54.9195C20.4028 54.8021 19.7528 54.5602 19.2066 54.2145C19.1873 54.2559 19.168 54.2973 19.1497 54.3391C19.7144 54.6865 20.3817 54.9284 21.0964 55.0446C21.811 55.1609 22.5524 55.1481 23.2592 55.0075C23.2814 55.0031 23.3037 54.9986 23.3258 54.9936C23.3812 54.9819 23.4356 54.9698 23.4899 54.9571C24.3272 54.7557 25.0692 54.3782 25.6272 53.8698C25.5892 53.8398 25.5513 53.8098 25.5126 53.7799C24.9716 54.2777 24.2481 54.6466 23.4308 54.8416Z" fill="white"/>
<path d="M24.1516 56.4733C24.0972 56.488 24.0424 56.5014 23.9874 56.5143C23.9284 56.5279 23.8692 56.541 23.8095 56.5529C22.8799 56.737 21.8955 56.6911 21.0036 56.422C20.1118 56.1529 19.3606 55.6751 18.8624 55.0601C18.8437 55.1154 18.8249 55.1701 18.8079 55.225C19.3385 55.8319 20.1115 56.2983 21.017 56.558C21.9225 56.8177 22.9144 56.8575 23.8519 56.6717C23.9115 56.6599 23.9709 56.6474 24.0289 56.6333C24.0849 56.6209 24.1398 56.6074 24.1943 56.5934C25.2951 56.3039 26.2076 55.7125 26.747 54.939C26.7146 54.8983 26.6801 54.8587 26.6454 54.8185C26.1336 55.5916 25.2391 56.1851 24.1516 56.4733Z" fill="white"/>
<path d="M86.1526 54.6748L84.6376 56.4554L85.5201 54.1374C83.6568 52.684 81.0775 51.6207 81.0775 51.6207C81.0775 51.6207 77.9013 55.5231 78.7562 57.9235C79.611 60.324 81.8184 60.7822 84.1731 60.3135C86.5278 59.8449 88.1382 58.6268 87.2834 56.2264C87.0931 55.6921 86.6798 55.1676 86.1526 54.6748Z" fill="#F2F2F2"/>
<path d="M84.1482 56.6329L84.1903 56.7512C84.6707 58.1285 84.7426 59.2633 84.4029 60.1401C84.3982 60.1529 84.3926 60.1653 84.3879 60.1782L84.3087 60.1607L84.2328 60.1432C84.6177 59.1928 84.4459 57.9919 84.0273 56.7906C84.0143 56.7518 84.0011 56.7124 83.9864 56.6733C83.8032 56.1659 83.5787 55.6604 83.3344 55.1746C83.3159 55.1369 83.2965 55.0988 83.277 55.0606C82.9501 54.4206 82.5928 53.818 82.2619 53.2987C82.2387 53.2619 82.2147 53.2252 82.191 53.1892C81.626 52.3118 81.147 51.6902 81.0394 51.5529C81.0267 51.536 81.0192 51.5268 81.0176 51.5246L81.0864 51.494L81.087 51.4933L81.1565 51.4625C81.1582 51.4647 81.1834 51.4954 81.2274 51.5531C81.3939 51.7684 81.8359 52.3547 82.3456 53.1427C82.3684 53.1784 82.3923 53.215 82.4155 53.2518C82.6847 53.6731 82.9701 54.1469 83.2415 54.6499C83.3099 54.7762 83.3754 54.9011 83.4379 55.0248C83.4582 55.0628 83.4776 55.101 83.4961 55.1387C83.7603 55.6638 83.9777 56.1619 84.1482 56.6329Z" fill="white"/>
<path d="M82.3456 53.1427C82.295 53.1585 82.2436 53.1743 82.191 53.1892C82.0482 53.2297 81.9027 53.2648 81.7551 53.2941C81.1263 53.42 80.4677 53.4387 79.828 53.349C79.8061 53.3866 79.7843 53.4242 79.7618 53.4625C80.4365 53.5616 81.1326 53.544 81.7968 53.4113C81.9544 53.3799 82.1096 53.3423 82.2618 53.2987C82.3136 53.284 82.365 53.2681 82.4155 53.2518C82.8322 53.1191 83.2197 52.9398 83.5644 52.7201C83.5193 52.6946 83.4751 52.6695 83.4319 52.6449C83.1046 52.8499 82.7385 53.0177 82.3456 53.1427Z" fill="white"/>
<path d="M83.4378 55.0248C83.3846 55.0379 83.331 55.0498 83.2769 55.0606C83.2607 55.0645 83.2434 55.0679 83.227 55.0712C82.5454 55.2068 81.83 55.2173 81.1419 55.1016C80.4538 54.9859 79.8133 54.7476 79.275 54.4068C79.2559 54.4476 79.2369 54.4884 79.2189 54.5297C79.7754 54.872 80.433 55.1104 81.1373 55.2249C81.8416 55.3395 82.5722 55.3269 83.2687 55.1883C83.2906 55.184 83.3126 55.1796 83.3343 55.1746C83.3889 55.1631 83.4426 55.1512 83.496 55.1387C84.3212 54.9401 85.0524 54.5681 85.6023 54.0671C85.5649 54.0376 85.5275 54.008 85.4893 53.9786C84.9563 54.4691 84.2433 54.8327 83.4378 55.0248Z" fill="white"/>
<path d="M84.1482 56.6329C84.0946 56.6473 84.0406 56.6606 83.9863 56.6732C83.9282 56.6867 83.8699 56.6996 83.8111 56.7113C82.895 56.8927 81.9248 56.8475 81.046 56.5823C80.1671 56.3171 79.4268 55.8463 78.9358 55.2402C78.9174 55.2947 78.8989 55.3486 78.8821 55.4027C79.405 56.0008 80.1668 56.4604 81.0591 56.7163C81.9515 56.9723 82.929 57.0115 83.8528 56.8284C83.9116 56.8167 83.9701 56.8044 84.0273 56.7905C84.0825 56.7783 84.1365 56.765 84.1903 56.7512C85.2751 56.4659 86.1743 55.8831 86.7059 55.1208C86.674 55.0808 86.64 55.0417 86.6057 55.0021C86.1014 55.7639 85.2198 56.3489 84.1482 56.6329Z" fill="white"/>
<path d="M54.7971 10.4367C54.7971 6.17743 50.825 2.72461 45.9252 2.72461C41.0254 2.72461 37.0533 6.17743 37.0533 10.4367C37.0533 14.2997 40.3207 17.4992 44.5841 18.0612V18.7879C44.5841 18.9252 44.6571 19.0569 44.7869 19.154C44.9168 19.2511 45.0929 19.3056 45.2766 19.3056H46.5739C46.7575 19.3056 46.9337 19.2511 47.0635 19.154C47.1934 19.0569 47.2663 18.9252 47.2663 18.7879V18.0612C51.5297 17.4992 54.7971 14.2997 54.7971 10.4367Z" fill="#6C63FF"/>
<path d="M44.3709 18.6829C44.6485 18.488 44.9792 18.3404 45.3403 18.25C45.7015 18.1597 46.0845 18.1289 46.463 18.1597C46.8446 18.1928 47.2106 18.2916 47.5324 18.4485C47.8541 18.6053 48.1227 18.8159 48.317 19.0635C48.5114 19.3039 48.6334 19.5729 48.6748 19.852C48.7162 20.1312 48.6758 20.4137 48.5565 20.68C48.3233 21.2111 47.8276 21.653 47.3194 22.0514C46.7863 22.4693 46.2065 22.8547 45.7053 23.2951C44.8788 24.0257 44.3016 24.8952 44.0234 25.8291C43.7451 26.7631 43.774 27.7335 44.1077 28.6572C44.5474 29.8281 45.4554 30.8704 46.71 31.6446C46.8693 31.7419 47.0333 31.8346 47.2021 31.9226C47.3975 32.0248 47.5824 31.7854 47.3887 31.684C46.0267 30.9637 45.0201 29.9279 44.5246 28.7369C44.1489 27.8088 44.1008 26.8238 44.3851 25.8777C44.6693 24.9316 45.2761 24.0565 46.1466 23.3376C46.6753 22.9012 47.2673 22.5106 47.7958 22.0741C48.3022 21.6559 48.7637 21.1841 48.9615 20.6316C49.0616 20.3507 49.0864 20.0578 49.0345 19.7697C48.9826 19.4816 48.855 19.2041 48.659 18.953C48.4639 18.6963 48.2 18.4725 47.8839 18.2957C47.5677 18.1188 47.206 17.9927 46.8216 17.9252C46.0483 17.7995 45.2398 17.9041 44.568 18.2169C44.4034 18.2954 44.2498 18.386 44.1095 18.4875C43.9378 18.6111 44.1994 18.8064 44.3709 18.6829V18.6829Z" fill="#3F3D56"/>
<path d="M20.6095 7.20716C17.8949 2.54197 11.3437 0.174881 5.97691 1.92013C0.610132 3.66538 -1.53987 8.86207 1.17471 13.5273C3.63672 17.7584 9.25464 20.099 14.2825 19.196L14.7457 19.992C14.8332 20.1424 14.9971 20.2606 15.2012 20.3207C15.4053 20.3808 15.633 20.3778 15.8341 20.3124L17.255 19.8503C17.4562 19.7849 17.6143 19.6624 17.6947 19.5098C17.7751 19.3572 17.7711 19.187 17.6836 19.0366L17.2204 18.2406C21.5319 16.1065 23.0715 11.4383 20.6095 7.20716Z" fill="#6C63FF"/>
<path d="M14.418 19.9292C14.5944 19.6254 14.8542 19.3527 15.1805 19.1288C15.5068 18.9049 15.8925 18.7347 16.3124 18.6293C16.7247 18.5255 17.1624 18.4904 17.5949 18.5263C18.0273 18.5622 18.444 18.6683 18.8158 18.8373C19.1989 19.0069 19.5292 19.2356 19.7846 19.5082C20.0401 19.7808 20.2149 20.091 20.2974 20.418C20.4869 21.176 20.1794 21.9481 19.8301 22.6538C19.4639 23.3936 19.0076 24.1121 18.753 24.8803C18.3986 25.96 18.3914 27.0871 18.7321 28.1693C19.0727 29.2515 19.7514 30.258 20.7126 31.1063C21.9231 32.1551 23.5175 32.9163 25.2994 33.2962C25.518 33.3423 25.7389 33.3816 25.9615 33.4153C26.1937 33.4504 26.2931 33.1841 26.0597 33.1488C24.2057 32.8635 22.5161 32.1545 21.2246 31.12C19.8555 30.0134 19.0285 28.5927 18.8784 27.0896C18.798 26.328 18.8914 25.5618 19.1545 24.8236C19.4354 24.0447 19.9108 23.3154 20.2693 22.5565C20.6113 21.8322 20.8537 21.0545 20.6388 20.2882C20.4412 19.6134 19.8935 19.0248 19.1159 18.6517C18.7432 18.4679 18.3254 18.3414 17.8868 18.2795C17.4481 18.2175 16.9974 18.2214 16.5607 18.2908C15.669 18.4418 14.8878 18.8411 14.3759 19.4075C14.2514 19.5487 14.1461 19.6988 14.0615 19.8557C13.9707 20.0199 14.3282 20.0915 14.418 19.9292L14.418 19.9292Z" fill="#3F3D56"/>
<path d="M96.4388 63.5561L98.4314 63.556L99.3793 57.8104L96.4385 57.8105L96.4388 63.5561Z" fill="#FFB6B6"/>
<path d="M95.9305 63.0698L99.8546 63.0696H99.8548C100.518 63.0697 101.154 63.2666 101.623 63.6172C102.092 63.9678 102.355 64.4433 102.355 64.9391V64.9998L95.9307 65L95.9305 63.0698Z" fill="#2F2E41"/>
<path d="M84.6451 62.2894L86.545 62.7386L89.7668 57.4744L86.9629 56.8113L84.6451 62.2894Z" fill="#FFB6B6"/>
<path d="M84.3568 61.7111L88.0982 62.5958L88.0983 62.5958C88.7306 62.7454 89.2576 63.0766 89.5633 63.5166C89.8689 63.9566 89.9283 64.4694 89.7283 64.9421L89.7038 65L83.5781 63.5515L84.3568 61.7111Z" fill="#2F2E41"/>
<path d="M89.1316 37.3154L88.0259 39.6468L87.9946 52.2328L84.8589 60.85L88.7081 61.6531L92.96 53.5278L94.3238 46.391L96.121 53.5693L95.8736 62.1012H99.9122L100.217 48.9535C100.303 45.261 99.4384 41.5907 97.6713 38.142V38.142L89.1316 37.3154Z" fill="#2F2E41"/>
<path d="M87.8148 27.8718H94.3427L97.0703 29.9109L97.8851 38.3395L88.026 39.5256L84.8589 31.4835L86.5836 28.0656L87.8148 27.8718Z" fill="#E4E4E4"/>
<path d="M85.4671 31.5639L75.4165 28.7369L75.1549 27.5683L81.4934 23.5588L83.603 24.7417L79.7793 27.8718L86.5835 28.0656L85.4671 31.5639Z" fill="#E4E4E4"/>
<path d="M82.7124 25.1988C83.61 25.1988 84.3377 24.6548 84.3377 23.9838C84.3377 23.3127 83.61 22.7687 82.7124 22.7687C81.8148 22.7687 81.0872 23.3127 81.0872 23.9838C81.0872 24.6548 81.8148 25.1988 82.7124 25.1988Z" fill="#FFB6B6"/>
<path d="M86.4818 25.5143L87.2162 23.0386C87.3449 22.6026 87.5874 22.1898 87.9296 21.8239C88.2719 21.458 88.7073 21.146 89.2109 20.906C89.7145 20.6659 90.2765 20.5024 90.8647 20.4248C91.4529 20.3472 92.0558 20.357 92.6389 20.4536C93.222 20.5503 93.7739 20.732 94.2631 20.9882C94.7522 21.2444 95.1691 21.5702 95.4897 21.9469C95.8103 22.3236 96.0285 22.7439 96.1318 23.1837C96.235 23.6235 96.2213 24.0742 96.0914 24.51L95.357 26.9858C95.3218 27.1039 95.2253 27.2067 95.0888 27.2717C94.9523 27.3368 94.7868 27.3586 94.6287 27.3326L86.9457 26.0588C86.7877 26.0325 86.6501 25.9604 86.5631 25.8583C86.4761 25.7562 86.4469 25.6325 86.4818 25.5143Z" fill="#2F2E41"/>
<path d="M91.5415 26.4476C93.3093 26.0646 94.3271 24.6829 93.8149 23.3613C93.3026 22.0397 91.4543 21.2788 89.6865 21.6617C87.9187 22.0447 86.9008 23.4264 87.4131 24.748C87.9253 26.0696 89.7737 26.8305 91.5415 26.4476Z" fill="#FFB6B6"/>
<path d="M86.1076 23.0626C86.315 22.367 86.8831 21.7614 87.6871 21.3785C88.4912 20.9956 89.4655 20.8668 90.3964 21.0203L91.0588 21.1301C91.9892 21.2852 92.7994 21.7099 93.3116 22.311C93.8237 22.912 93.996 23.6405 93.7907 24.3364L93.776 24.3859L92.3762 24.1538L92.1953 23.0753L91.8034 24.0589L91.08 23.9389L90.9887 23.3948L90.7909 23.891L86.0929 23.1121L86.1076 23.0626Z" fill="#2F2E41"/>
<path d="M89.4725 26.7699C89.4266 26.6925 89.4108 26.6069 89.427 26.5231C89.4432 26.4392 89.4907 26.3605 89.5641 26.296C90.5621 25.4144 92.0919 23.7332 91.1248 22.3796L91.0553 22.2823L94.8422 22.9102L93.5813 27.1605L90.0066 27.0439C89.9705 27.0427 89.9345 27.0392 89.8991 27.0334C89.8052 27.0178 89.7175 26.9858 89.6434 26.94C89.5692 26.8942 89.5107 26.8359 89.4725 26.7699Z" fill="#2F2E41"/>
<path d="M94.083 27.9228L104.714 29.0529L105.309 30.1513L100.285 35.0931L97.8819 34.2804L100.707 30.6049L94.0081 31.5189L94.083 27.9228Z" fill="#E4E4E4"/>
<path d="M110 11.9011C110 6.81366 105.256 2.68945 99.403 2.68945C93.5504 2.68945 88.806 6.81366 88.806 11.9011C88.806 16.5152 92.7087 20.3369 97.8011 21.0081V21.8762C97.8011 22.0402 97.8883 22.1975 98.0434 22.3134C98.1985 22.4294 98.4089 22.4945 98.6282 22.4945H100.178C100.397 22.4945 100.608 22.4294 100.763 22.3134C100.918 22.1975 101.005 22.0402 101.005 21.8762V21.0081C106.097 20.3369 110 16.5152 110 11.9011Z" fill="#6C63FF"/>
<path d="M97.521 21.7318C97.8574 21.4954 98.2586 21.3165 98.6967 21.2074C99.1347 21.0983 99.5993 21.0617 100.058 21.1001C100.509 21.1398 100.942 21.2556 101.324 21.4389C101.706 21.6222 102.027 21.868 102.263 22.1579C102.503 22.4439 102.658 22.7654 102.716 23.1004C102.774 23.4353 102.735 23.7757 102.6 24.0981C102.339 24.731 101.765 25.2609 101.167 25.7359C100.528 26.2425 99.8293 26.7059 99.2192 27.2323C98.2246 28.0964 97.5257 29.1281 97.1825 30.2388C96.8392 31.3495 96.8619 32.5058 97.2487 33.6085C97.766 35.0257 98.8592 36.2879 100.377 37.2208C100.562 37.333 100.751 37.4399 100.946 37.5417C101.142 37.6438 101.327 37.4044 101.133 37.3031C99.5073 36.4441 98.3033 35.2103 97.7054 33.7907C97.2513 32.6827 97.1869 31.5059 97.5185 30.3739C97.8501 29.2418 98.5663 28.1928 99.5982 27.328C100.225 26.8046 100.932 26.3384 101.566 25.82C102.173 25.3237 102.731 24.7665 102.981 24.1106C103.106 23.7793 103.143 23.4327 103.088 23.0908C103.033 22.7489 102.888 22.4186 102.662 22.1188C102.436 21.8123 102.128 21.5439 101.757 21.3305C101.386 21.1172 100.96 20.9634 100.506 20.8788C99.5833 20.7202 98.6139 20.8404 97.8088 21.2133C97.6114 21.3066 97.4274 21.4149 97.2596 21.5364C97.0882 21.6602 97.3498 21.8555 97.521 21.7318Z" fill="#3F3D56"/>
<path d="M98.8026 36.4984C99.7003 36.4984 100.428 35.9544 100.428 35.2834C100.428 34.6123 99.7003 34.0684 98.8026 34.0684C97.905 34.0684 97.1774 34.6123 97.1774 35.2834C97.1774 35.9544 97.905 36.4984 98.8026 36.4984Z" fill="#FFB6B6"/>
<path d="M81.8662 24.3248C81.781 24.4256 81.5744 24.411 81.4584 24.348C81.2973 24.2605 81.3495 24.0921 81.4604 23.9925C81.8129 23.6762 82.3958 24.0102 82.4745 24.3243C82.5037 24.4775 82.4722 24.6337 82.3837 24.7736C82.2953 24.9135 82.1539 25.0309 81.977 25.1113C81.5749 25.2895 81.0525 25.2001 80.7067 24.9869C79.9854 24.5421 80.1818 23.6515 80.983 23.3297C81.4943 23.1243 82.1407 23.2144 82.6444 23.3865C83.2113 23.5801 83.6989 23.877 84.2232 24.1244C85.3737 24.6627 86.6751 24.995 88.0258 25.095C88.2622 25.1131 88.2605 24.8366 88.0258 24.8187C87.2773 24.7608 86.5425 24.6286 85.8408 24.4254C85.1466 24.215 84.4877 23.9447 83.8775 23.6198C83.2602 23.3035 82.6152 22.9961 81.8512 22.9439C81.5428 22.917 81.2305 22.9515 80.9459 23.0441C80.6612 23.1367 80.4145 23.284 80.2307 23.471C80.0672 23.6383 79.9577 23.8317 79.9109 24.0359C79.8641 24.2402 79.8812 24.4498 79.9609 24.6482C80.0569 24.8558 80.2247 25.0406 80.4473 25.1839C80.6699 25.3272 80.9394 25.4238 81.2282 25.4639C81.5062 25.5032 81.7937 25.4766 82.0506 25.3879C82.3074 25.2992 82.5208 25.1528 82.661 24.969C82.9422 24.6055 82.9331 24.1171 82.5084 23.8156C82.3866 23.7231 82.2342 23.6564 82.0667 23.6223C81.8991 23.5883 81.7225 23.5881 81.5549 23.6218C81.4004 23.6608 81.2645 23.7326 81.1637 23.8284C81.063 23.9243 81.0018 24.04 80.9877 24.1614C80.9467 24.6334 81.8428 24.8694 82.1854 24.4643C82.3129 24.3135 81.9931 24.1747 81.8662 24.3248Z" fill="#3F3D56"/>
<path d="M7.91033 39.1764L7.42213 39.6343L5.69531 38.8707L6.18351 38.4127L7.91033 39.1764Z" fill="#E4E4E4"/>
<path d="M9.71212 41.144L10.1434 41.6252L8.32934 42.2997L7.89807 41.8186L9.71212 41.144Z" fill="#E4E4E4"/>
<path d="M11.59 39.0524L12.4518 39.0752L12.3661 40.4232L11.5043 40.4005L11.59 39.0524Z" fill="#E4E4E4"/>
<path d="M28.2416 2.69819L27.7534 3.1561L26.0266 2.39245L26.5148 1.93445L28.2416 2.69819Z" fill="#E4E4E4"/>
<path d="M30.0435 4.66577L30.4748 5.1469L28.6608 5.82147L28.2295 5.34034L30.0435 4.66577Z" fill="#E4E4E4"/>
<path d="M31.9215 2.57422L32.7833 2.59697L32.6975 3.94501L31.8357 3.92225L31.9215 2.57422Z" fill="#E4E4E4"/>
<path d="M76.1745 7.48823L75.6863 7.94614L73.9595 7.18249L74.4477 6.72449L76.1745 7.48823Z" fill="#E4E4E4"/>
<path d="M77.9763 9.45581L78.4076 9.93694L76.5935 10.6115L76.1622 10.1304L77.9763 9.45581Z" fill="#E4E4E4"/>
<path d="M79.8542 7.36426L80.716 7.38701L80.6302 8.73505L79.7684 8.71229L79.8542 7.36426Z" fill="#E4E4E4"/>
<path d="M61.5113 0.76374L61.0231 1.22165L59.2963 0.458004L59.7845 0L61.5113 0.76374Z" fill="#E4E4E4"/>
<path d="M63.3131 2.73132L63.7443 3.21245L61.9303 3.88702L61.499 3.40589L63.3131 2.73132Z" fill="#E4E4E4"/>
<path d="M65.191 0.639771L66.0528 0.662523L65.967 2.01056L65.1052 1.98781L65.191 0.639771Z" fill="#E4E4E4"/>
<path d="M76.4192 35.1886L75.9309 35.7202L77.6578 36.6066L78.146 36.075L76.4192 35.1886Z" fill="#E4E4E4"/>
<path d="M78.1338 39.1418L78.5651 39.7003L80.3792 38.9173L79.9479 38.3588L78.1338 39.1418Z" fill="#E4E4E4"/>
<path d="M81.74 37.4957L82.6018 37.5222L82.6876 35.9575L81.8258 35.9311L81.74 37.4957Z" fill="#E4E4E4"/>
<path d="M39.7878 59.3113L41.2806 59.1386L40.2571 50.2217L36.9302 50.6823L39.7878 59.3113Z" fill="#FFB6B6"/>
<path d="M39.3315 58.9909L42.2716 58.651L42.2718 58.651C42.7687 58.5936 43.2758 58.6861 43.6815 58.9081C44.0872 59.1302 44.3582 59.4636 44.4351 59.8351L44.4445 59.8806L39.6307 60.4371L39.3315 58.9909Z" fill="#2F2E41"/>
<path d="M24.0973 59.2007L25.6065 59.2487L27.4422 51.327L24.1153 51.3271L24.0973 59.2007Z" fill="#FFB6B6"/>
<path d="M23.7332 58.8201L26.7055 58.9147H26.7057C27.208 58.9307 27.6813 59.0953 28.0214 59.3722C28.3615 59.6491 28.5405 60.0156 28.5191 60.3911L28.5165 60.4372L23.6499 60.2822L23.7332 58.8201Z" fill="#2F2E41"/>
<path d="M27.0688 33.3914C26.9975 33.3765 26.9246 33.3663 26.851 33.3611L27.7919 27.6037L30.9844 22.5495C31.1852 22.2315 31.2173 21.8685 31.0742 21.5335C30.9311 21.1986 30.6233 20.9167 30.2131 20.7447C29.8029 20.5727 29.3207 20.5234 28.8637 20.6067C28.4068 20.6901 28.0091 20.8998 27.751 21.1937V21.1937C26.9142 22.1461 26.2813 23.1903 25.875 24.2885L24.5337 27.9139L25.5145 34.1311C25.4769 34.3063 25.5078 34.4859 25.6035 34.6484C25.6993 34.8108 25.8557 34.949 26.0541 35.0465C26.2525 35.144 26.4843 35.1966 26.7217 35.1979C26.9591 35.1992 27.192 35.1491 27.3923 35.0538C27.5925 34.9585 27.7517 34.822 27.8506 34.6607C27.9495 34.4993 27.9839 34.32 27.9498 34.1444C27.9156 33.9688 27.8143 33.8043 27.658 33.6707C27.5017 33.5371 27.2971 33.4401 27.0688 33.3914H27.0688Z" fill="#FFB6B6"/>
<path d="M29.0071 28.0911L24.9736 24.6417L26.9718 21.1282C27.2334 20.6681 27.7253 20.3026 28.3423 20.1099C28.9593 19.9171 29.6527 19.9122 30.2745 20.0963C30.8962 20.2804 31.3972 20.6388 31.6703 21.0952C31.9435 21.5515 31.9672 22.0696 31.7365 22.5389L29.0071 28.0911Z" fill="#2F2E41"/>
<path d="M35.7121 17.0944C36.6825 15.7673 36.0301 14.1034 34.2549 13.378C32.4797 12.6525 30.254 13.1402 29.2836 14.4673C28.3132 15.7944 28.9656 17.4583 30.7408 18.1838C32.516 18.9092 34.7417 18.4215 35.7121 17.0944Z" fill="#FFB6B6"/>
<path d="M33.1103 12.4539H30.744C29.1927 12.4539 27.9351 13.5115 27.9351 14.8162L28.0446 17.9809C29.7208 18.1368 31.3603 18.4646 32.9168 18.9551L33.1377 18.25L33.5734 19.1786C33.9608 19.3189 34.345 19.4724 34.7259 19.639C34.2813 18.0775 34.0984 16.5196 34.4036 15.3095H35.2051V14.6538L35.4771 15.3095H36.9302V15.3095C36.9302 14.9345 36.8314 14.5631 36.6394 14.2167C36.4474 13.8702 36.1661 13.5554 35.8114 13.2902C35.4567 13.0251 35.0356 12.8147 34.5721 12.6712C34.1087 12.5277 33.612 12.4539 33.1103 12.4539Z" fill="#2F2E41"/>
<path d="M40.826 50.7062L40.4832 50.7679L40.1955 46.7673L38.1007 34.7922L35.6979 30.2324L36.8685 27.0544C36.8685 27.0544 38.224 24.8436 34.8354 23.1394L32.1245 19.7311C30.252 18.8158 28.7113 19.4143 27.89 20.9701C27.1744 22.3257 26.6189 24.0406 26.9493 25.8108C27.6894 29.776 28.3047 30.2324 28.3047 30.2324C28.3047 30.2324 23.6839 34.0552 24.6697 38.9374L24.1203 51.5781L23.6177 51.5627L23.5626 52.5667L27.9537 52.7013L28.0088 51.6972L27.6446 51.6861L29.2289 46.6752L31.57 40.0428L35.6363 48.1491L37.004 51.3943L36.5534 51.4754L36.8682 52.4524L41.1408 51.6831L40.826 50.7062Z" fill="#2F2E41"/>
<path d="M43.8436 28.0073C43.7939 28.0482 43.7492 28.0924 43.71 28.1394L37.2405 24.9377L32.6185 20.5442C32.3277 20.2678 31.9076 20.0842 31.4428 20.0302C30.9781 19.9763 30.5032 20.0561 30.1141 20.2537C29.725 20.4512 29.4505 20.7516 29.3461 21.0945C29.2416 21.4373 29.315 21.797 29.5514 22.101C30.3172 23.0861 31.284 23.976 32.4166 24.7384L36.1559 27.2553L44.0343 29.3773C44.2272 29.4807 44.456 29.5403 44.6931 29.5488C44.9303 29.5574 45.1656 29.5145 45.3709 29.4254C45.5762 29.3362 45.7427 29.2047 45.8503 29.0465C45.958 28.8883 46.0022 28.7102 45.9776 28.5337C45.953 28.3572 45.8607 28.1897 45.7119 28.0515C45.563 27.9132 45.3638 27.8101 45.1384 27.7545C44.9129 27.6989 44.6708 27.6931 44.4411 27.738C44.2114 27.7828 44.0039 27.8763 43.8436 28.0073H43.8436Z" fill="#FFB6B6"/>
<path d="M38.3668 24.3426L32.4366 25.4989L29.1248 22.5927C28.6911 22.2121 28.4735 21.7199 28.5185 21.2211C28.5635 20.7223 28.8675 20.2564 29.3656 19.9228C29.8637 19.5892 30.5165 19.4144 31.1846 19.4356C31.8528 19.4568 32.4834 19.6724 32.9419 20.0363L38.3668 24.3426Z" fill="#2F2E41"/>
<path d="M84.3315 60.531H4.57152C4.53261 60.531 4.49529 60.5195 4.46778 60.4989C4.44026 60.4783 4.4248 60.4504 4.4248 60.4213C4.4248 60.3922 4.44026 60.3643 4.46778 60.3438C4.49529 60.3232 4.53261 60.3116 4.57152 60.3116H84.3315C84.3704 60.3116 84.4077 60.3232 84.4352 60.3438C84.4627 60.3643 84.4782 60.3922 84.4782 60.4213C84.4782 60.4504 84.4627 60.4783 84.4352 60.4989C84.4077 60.5195 84.3704 60.531 84.3315 60.531Z" fill="#CACACA"/>
</svg>
