<svg version="1.1" id="Camada_1" xmlns="http://www.w3.org/2000/svg" x="0" y="0" viewBox="0 0 2500 807.1" style="enable-background:new 0 0 2500 807.1" xml:space="preserve"><style>.st0{fill:#2b3797}</style><path class="st0" d="m1186.4 499.2-27.7 138.6c-12.2 56.2-46.1 93.7-115.2 93.7-79.3 0-100.3-49.2-82.9-118.5 24.6-98.3 104.7-127.5 225.8-113.8m125-198.2-84.4 5.4-26.7 135.7c-32.3-1.1-42.4-2.2-80.3-2.2-118.7 0-222.3 49.9-249.7 167-24.7 105.6 35.3 187.5 166 187.5 133.9 0 192.2-69.9 213.2-168.1l61.9-325.3zM396.1 505.1c-123.7-11.3-230.1-1-231.9 41-2.7 63.1 203.9 8 199.9 124.1C358.3 840.6 71.1 801.4 0 779.7l12.9-50.6c122.6 19.4 251.8 21.1 254.7-46.5 3-71.8-204.4-7.3-199.5-123.6 3.6-86.7 133.3-133.4 345.5-102.2l-17.5 48.3zM729.6 621c-17.9 71.2-74.3 115.8-141.5 115.8-70.3 0-101.9-40.7-83-115.8C523 549.8 580 502.1 647.2 502.1c67.2 0 100.3 47.8 82.4 118.9m-71.5-177.1c-123 0-221.9 71.2-246.2 177.2-24.4 106.1 41.9 177.2 164.8 177.2S798.6 727.1 822.9 621c24.4-106-41.8-177.1-164.8-177.1m1421.4 352.5h-106.9c-64.9-61-188.9-201.1-280.2-349.3h78.5c86.7 119.7 308.6 349.3 308.6 349.3m112.1-693.8L2240.8 0l14 104.3 100.3-35.1-70.1 89.9 76 58.9-101.5 7.8-5.6 108.5-56.4-80.1-82.9 76.5 31.1-107.8-97.8-13.3 95.2-54.2-39-92.8 87.5 40zm208.5 519.5c-18.1 72.3-75.4 117.7-143.7 117.7-71.3 0-103.5-41.4-84.3-117.7 18.1-72.3 76.1-120.8 144.3-120.8 68.3 0 101.9 48.5 83.7 120.8m-72.6-180c-124.9 0-225.4 72.3-250.1 180-24.7 107.7 42.5 180 167.5 180 124.9 0 225.4-72.3 250.1-180 24.7-107.7-42.6-180-167.5-180"/><path d="M1611.3 766.7c202-112.2 377.4-284.6 501.9-433.6-89.5 280-304.9 430.6-501.9 433.6" style="fill:#ed1c24"/><path class="st0" d="M1531.4 495.8c38.7 0 59.7 14 59.7 40.9 0 71.2-138.8 66.5-200 54 21.5-53.3 70.1-94.9 140.3-94.9m142.9 37c0-51.6-41.2-89.6-134.5-89.6-151.5 0-249.9 98.3-249.9 220 0 78.6 65.3 143.9 184.4 143.9 82.1 0 137-40.5 137-40.5-104.5 11.2-232.8 0-232.8-111.8 0-4.4.2-8.9.6-13.3 142.6 29.7 295.2-6.2 295.2-108.7"/></svg>